<svg width="210" height="210" viewBox="0 0 210 210" fill="none" xmlns="http://www.w3.org/2000/svg">
<g opacity="0.75" clip-path="url(#clip0)">
<path d="M121.841 157.543C121.841 148.273 114.32 140.759 105.042 140.759C95.7638 140.759 88.2432 148.273 88.2432 157.543C88.2432 166.813 95.7638 174.328 105.042 174.328C114.32 174.328 121.841 166.813 121.841 157.543Z" fill="#3A3A3C"/>
<path d="M105.042 140.759C102.062 140.759 99.2646 141.537 96.8389 142.896C101.967 145.77 105.435 151.25 105.435 157.543C105.435 163.835 101.967 169.316 96.8389 172.189C99.2646 173.549 102.062 174.328 105.042 174.328C114.32 174.328 121.841 166.812 121.841 157.543C121.841 148.273 114.32 140.759 105.042 140.759Z" fill="#2C2C2E"/>
<path d="M80.7443 135.851C78.6582 135.851 76.5706 135.081 74.9428 133.527C71.5878 130.325 71.4677 125.013 74.6736 121.661C82.6749 113.294 93.4607 108.687 105.041 108.687L123.263 133.256C118.459 128.235 111.988 125.471 105.041 125.471C98.0926 125.471 91.6214 128.236 86.8181 133.257C85.1695 134.983 82.9585 135.851 80.7443 135.851Z" fill="#3A3A3C"/>
<path d="M62.5232 110.448C60.4388 110.448 58.3495 109.675 56.7217 108.123C53.3684 104.922 53.2466 99.6088 56.451 96.2571C69.2555 82.8693 86.5125 75.4961 105.042 75.4961C123.54 75.4961 140.775 82.8485 153.575 96.1978C156.784 99.5463 156.668 104.859 153.318 108.065C149.968 111.269 144.651 111.157 141.443 107.809C131.843 97.7951 118.915 92.2805 105.042 92.2805C91.1444 92.2805 78.2004 97.8112 68.597 107.854C66.9484 109.578 64.7374 110.448 62.5232 110.448Z" fill="#3A3A3C"/>
<path d="M153.575 96.1978C140.777 82.8485 123.541 75.4961 105.042 75.4961C102.275 75.4961 99.5385 75.6643 96.8389 75.988C112.189 77.8321 126.284 84.8448 137.169 96.1978C139.562 98.6956 140.104 102.284 138.837 105.277C139.731 106.086 140.601 106.929 141.443 107.809C144.653 111.157 149.969 111.269 153.32 108.065C156.669 104.859 156.784 99.5463 153.575 96.1978Z" fill="#2C2C2E"/>
<path d="M44.3029 85.6006C42.2169 85.6006 40.1276 84.83 38.4998 83.2759C35.1465 80.0747 35.0247 74.7619 38.2307 71.4118C55.8369 53.0028 79.5635 42.8643 105.041 42.8643C130.476 42.8643 154.175 52.974 171.775 71.3301C174.984 74.677 174.869 79.9898 171.519 83.1958C168.17 86.4017 162.852 86.2895 159.643 82.941C145.241 67.9206 125.852 59.6486 105.041 59.6486C84.1954 59.6486 64.7819 67.9431 50.3751 83.0067C48.7265 84.7322 46.5155 85.6006 44.3029 85.6006Z" fill="#3A3A3C"/>
<path d="M171.775 71.3301C154.177 52.974 130.476 42.8643 105.042 42.8643C102.284 42.8643 99.5494 42.9892 96.8369 43.2247C119.134 45.1602 139.677 54.9639 155.369 71.3317C157.75 73.815 158.298 77.3815 157.053 80.3663C157.933 81.2027 158.798 82.0598 159.644 82.941C162.853 86.2896 168.17 86.4033 171.521 83.1974C174.871 79.9898 174.984 74.677 171.775 71.3301Z" fill="#2C2C2E"/>
<path d="M105 0.410156C47.0094 0.410156 0 47.3795 0 105.317C0 163.257 47.0094 210.224 105 210.224C162.991 210.224 210 163.257 210 105.317C210 47.3795 162.991 0.410156 105 0.410156ZM16.3582 105.317C16.3582 83.8641 23.9925 64.1943 36.6962 48.8695L161.499 173.562C146.16 186.253 126.472 193.881 105 193.881C56.044 193.881 16.3582 154.23 16.3582 105.317ZM173.116 161.988L48.2799 37.2617C63.6511 24.4588 83.4235 16.7539 105 16.7539C153.956 16.7539 193.642 56.4045 193.642 105.317C193.642 126.874 185.931 146.631 173.116 161.988Z" fill="#3A3A3C"/>
<path d="M105 0.410156C102.248 0.410156 99.521 0.517502 96.8213 0.725784C150.217 4.83536 192.421 48.8519 193.612 102.972C193.652 104.497 193.653 106.024 193.613 107.551C192.479 161.722 150.255 205.796 96.8213 209.91C99.5193 210.117 102.248 210.224 105 210.224C162.991 210.224 210 163.257 210 105.317C210 47.3795 162.991 0.410156 105 0.410156Z" fill="#2C2C2E"/>
</g>
<defs>
<clipPath id="clip0">
<rect width="210" height="210" fill="white"/>
</clipPath>
</defs>
</svg>
